<svg width="26" height="27" viewBox="0 0 26 27" fill="none" xmlns="http://www.w3.org/2000/svg">
<path d="M15.0141 7.83721L15.0141 7.83721C11.7181 7.14624 9.14184 4.57005 8.45095 1.27394C8.41217 1.08904 8.24907 0.956565 8.06007 0.956565C7.87107 0.956565 7.70801 1.08903 7.66926 1.27392L7.66925 1.27394C6.97833 4.57002 4.4021 7.14619 1.10601 7.83706L1.106 7.83706C0.921089 7.87582 0.788596 8.03895 0.788596 8.22788C0.788596 8.41682 0.92106 8.57993 1.10599 8.61868L1.10603 8.61869C4.40206 9.30967 6.97818 11.8858 7.6691 15.1819L7.66911 15.1819C7.70786 15.3669 7.87096 15.4993 8.05992 15.4993C8.24887 15.4993 8.41198 15.3669 8.45073 15.1819L8.45074 15.1819C9.14171 11.8858 11.718 9.30966 15.0141 8.61884C15.199 8.58008 15.3315 8.41702 15.3315 8.22808L15.0141 7.83721ZM15.0141 7.83721C15.1989 7.87595 15.3314 8.03902 15.3315 8.22803L15.0141 7.83721Z" fill="#140C1C" stroke="#140C1C" stroke-width="0.860395"/>
<path d="M10.3738 18.273L10.3738 18.273C10.7179 19.9145 12.0008 21.1973 13.6422 21.5413C13.8272 21.5802 13.9596 21.7433 13.9596 21.9322C13.9596 22.1211 13.8271 22.2842 13.6422 22.323L13.6421 22.323C12.0008 22.667 10.7178 23.9499 10.3737 25.5913L10.3737 25.5913C10.335 25.7763 10.1719 25.9087 9.9829 25.9087C9.79394 25.9087 9.63084 25.7762 9.59208 25.5913L9.59208 25.5913C9.248 23.9499 7.9651 22.667 6.3238 22.3229L6.32377 22.3229C6.13883 22.2842 6.00637 22.1211 6.00637 21.9321C6.00637 21.7432 6.13886 21.58 6.32378 21.5413L6.3238 21.5413C7.96514 21.1972 9.24805 19.9144 9.59218 18.273L9.59219 18.2729C9.63093 18.088 9.79401 17.9556 9.983 17.9556C10.172 17.9556 10.3351 18.0881 10.3738 18.273Z" fill="black" stroke="#140C1C" stroke-width="0.860395"/>
<path d="M24.8482 13.8607L24.8482 13.8607C25.0331 13.8995 25.1656 14.0626 25.1656 14.2515C25.1656 14.4404 25.0331 14.6035 24.8482 14.6424C22.6884 15.095 21.0004 16.7831 20.5475 18.9428L20.5475 18.9429C20.5088 19.1278 20.3457 19.2603 20.1567 19.2603C19.9678 19.2603 19.8047 19.1278 19.7659 18.9429L19.7659 18.9429C19.3132 16.7831 17.6252 15.095 15.4654 14.6423C15.2804 14.6035 15.148 14.4403 15.148 14.2514C15.148 14.0625 15.2805 13.8994 15.4654 13.8606L15.4654 13.8606C17.6252 13.4079 19.3132 11.7199 19.766 9.56008L19.766 9.56004C19.8048 9.37515 19.9678 9.2427 20.1568 9.2427C20.3458 9.2427 20.5089 9.37518 20.5476 9.56011L20.5476 9.56012C21.0004 11.7199 22.6884 13.408 24.8482 13.8607Z" fill="#140C1C" stroke="#140C1C" stroke-width="0.860395"/>
</svg>
